<svg width="1200" height="628" viewBox="0 0 1200 628" fill="none" xmlns="http://www.w3.org/2000/svg">
<g clip-path="url(#clip0_1_2)">
<path d="M435.183 125.288C442.13 154.129 446.384 181.558 447.943 207.575C421.714 263.325 412.499 329.482 420.297 406.045L464.957 419.202C498.274 467.667 542.615 505.652 597.98 533.155C602.871 541.332 607.798 541.332 612.76 533.155C663.8 508.625 708.106 470.343 745.677 418.31L789.273 406.045C797.78 329.482 788.777 262.953 762.265 206.46C765.029 173.753 769.07 146.622 774.387 125.065C763.044 122.835 744.613 129.897 719.093 146.25C700.662 155.913 682.231 154.798 663.8 142.905C626.938 129.525 587.24 129.599 544.707 143.128C529.111 153.535 511.034 154.575 490.477 146.25C470.273 132.127 451.842 125.139 435.183 125.288Z" fill="#FFCC18"/>
<path d="M443.052 132.313C448.44 156.471 452.126 181.633 454.111 207.798C426.606 263.399 417.248 327.623 426.039 400.47L468.147 413.181C496.502 458.97 540.808 497.103 601.063 527.58C603.474 532.04 606.096 532.04 608.932 527.58C671.74 493.387 715.903 455.477 741.423 413.85L783.957 400.47C792.322 327.623 782.752 263.399 755.247 207.798C758.791 174.199 762.761 149 767.156 132.201C753.971 134.134 740.785 139.709 727.6 148.926C706.333 162.752 685.067 163.049 663.8 149.818C621.267 134.803 582.278 134.728 546.833 149.595C529.111 160.745 509.262 161.488 487.287 151.825C470.273 139.932 455.528 133.428 443.052 132.313Z" fill="white"/>
<path d="M445.817 134.154C451.488 156.581 455.027 181.488 456.435 208.877C428.641 263.917 419.094 327.492 427.795 399.603L469.478 412.186C497.547 457.513 541.405 495.261 601.053 525.428C603.439 529.843 606.036 529.843 608.843 525.428C671.015 491.581 714.732 454.055 739.994 412.849L782.098 399.603C790.379 327.492 780.906 263.917 753.679 208.877C755.771 175.618 759.7 150.673 765.467 134.043C752.415 137.443 739.363 143.37 726.311 151.825C705.26 164.694 684.208 164.579 663.156 151.482C621.052 136.618 582.456 136.544 547.369 151.261C529.827 162.299 510.179 163.379 488.424 154.501C468.747 142.04 454.545 135.258 445.817 134.154Z" fill="black"/>
<path d="M496.857 176.355L596.81 218.725L589.792 223.631L506.427 197.54L496.857 176.355ZM611.697 218.725L712.075 175.909L702.718 198.655L619.14 223.631L611.697 218.725ZM505.257 205.345L484.735 255.52L528.119 260.426L521.313 287.409L543.643 309.709C539.39 341.97 543.998 368.878 557.467 390.435L564.059 347.396L594.683 337.584V312.831L542.58 287.855L547.897 271.13H660.823L665.927 287.855L613.611 312.831V337.584L643.597 347.396L651.04 390.435C664.509 368.878 668.798 341.97 663.906 309.709L687.193 287.855L679.75 260.872L724.41 255.52L703.143 204.676L614.887 229.429L604.466 226.53L593.62 229.429L505.257 205.345ZM575.118 415.634L585.964 441.725H622.33L632.751 415.634C637.855 421.878 640.761 435.035 641.47 455.105H568.1C566.682 442.468 569.022 429.311 575.118 415.634ZM456.237 260.649L436.885 323.535L455.387 313.5C474.527 384.86 506.781 440.61 552.15 480.75C501.11 413.85 469.21 340.483 456.45 260.649M493.667 359.884L512.807 296.329C527.693 382.11 558.317 453.99 604.679 511.97C557.608 470.343 526.701 416.303 511.956 349.849L493.667 359.884ZM604.679 511.97C653.308 446.557 683.649 374.602 695.7 296.106L714.84 359.215L696.338 348.511C684.57 409.91 654.017 464.397 604.679 511.97ZM656.357 480.75C701.017 442.097 733.271 386.718 753.12 314.615L771.197 324.204L752.057 261.095C738.588 343.605 706.688 416.823 656.357 480.75Z" fill="white"/>
<path d="M562.783 264.44C564.91 235.45 551.796 222.813 523.44 226.53C530.529 230.247 534.428 234.93 535.137 240.579C536.271 244.147 540.17 246.154 546.833 246.6C553.922 246.6 559.239 252.547 562.783 264.44ZM645.723 264.44C643.597 235.45 656.711 222.813 685.067 226.53C677.269 230.247 673.37 234.93 673.37 240.579C672.661 243.85 669.471 245.857 663.8 246.6C655.293 246.6 649.268 252.547 645.723 264.44Z" fill="black"/>
<path d="M455.691 265.689L440.804 318.966L456.975 311.27C477.169 383.332 505.704 436.239 542.58 469.992C498.832 411.26 469.869 343.159 455.691 265.689ZM496.961 354.913L511.765 303.209C526.403 383.587 556.649 452.447 602.501 509.789C558.882 468.62 529.023 413.985 512.924 345.882L496.961 354.913ZM606.754 509.789C656.267 445.094 685.951 375.417 695.806 300.758L711.452 354.253L697.406 345.895C681.514 408.108 651.297 462.739 606.754 509.789ZM657.864 478.912C700.616 440.683 731.723 384.802 751.185 311.27L767.826 320.19L752.512 266.13C740.61 344.76 709.06 415.687 657.864 478.912Z" fill="#FFCC18"/>
<path d="M555.34 239.91C543.289 246.6 537.192 242.735 537.051 228.314L543.643 228.76C543.218 236.193 546.408 238.423 553.213 235.45L555.34 239.91ZM653.167 239.91L655.293 235.45C663.516 238.423 666.706 236.193 664.863 228.76L671.456 227.645C672.732 242.512 666.636 246.6 653.167 239.91Z" fill="#F0EB85"/>
<path d="M547.259 230.99C546.266 228.611 544.99 228.611 543.431 230.99C544.99 233.22 546.266 233.22 547.259 230.99ZM661.248 230.99C662.24 228.611 663.516 228.611 665.076 230.99C663.516 233.22 662.24 233.22 661.248 230.99Z" fill="white"/>
</g>
<defs>
<clipPath id="clip0_1_2">
<rect width="1200" height="628" fill="white"/>
</clipPath>
</defs>
</svg>
