<svg width="252" height="577" viewBox="0 0 252 577" fill="none" xmlns="http://www.w3.org/2000/svg">
<path d="M179.211 376.82C192.114 370.765 208.983 432.928 215.805 464.766L228.123 366.87L225.118 344.973C218.279 333.86 198.952 309.782 176.353 302.375L179.211 376.82C178.917 376.924 178.812 377.217 178.827 377.653C179.017 377.352 179.143 377.074 179.211 376.82Z" fill="#FFCC18"/>
<path d="M89.3497 490.49C87.3 457.681 86.6555 392.218 100.475 392.836L83.301 321.304C63.9071 337.253 52.0582 367.673 48.558 380.89L51.5627 402.786L89.3497 490.49Z" fill="#FFCC18"/>
<path d="M89.6204 18.8422C72.7036 47.2623 64.8751 85.5807 62.5996 126.16C69.902 128.604 88.5342 132.46 104.644 128.325C120.983 125.859 137.574 114.838 143.827 109.636C130.841 72.1618 113.206 39.0231 89.6204 18.8422Z" fill="#FFCC18"/>
<path fill-rule="evenodd" clip-rule="evenodd" d="M115.089 204.442C104.003 207.054 82.3918 218.167 84.6425 241.718C86.8227 264.53 110.553 266.063 123.243 263.858C135.832 260.921 157.864 250.079 153.835 227.642C149.676 204.48 126.271 202.524 115.089 204.442ZM96.5722 239.291C95.4662 224.082 104.447 216.253 116.377 213.826C125.921 211.885 138.891 215.248 141.905 230.069C144.92 244.89 129.863 252.526 121.957 254.491C113.957 255.761 97.6783 254.5 96.5722 239.291Z" fill="#FFCC18"/>
<path fill-rule="evenodd" clip-rule="evenodd" d="M106.361 140.837C96.8174 142.779 82.0431 153.073 83.2636 169.116C84.7892 189.17 104.592 190.5 112.943 188.801C121.294 187.103 139.666 178.006 135.755 158.438C132.625 142.783 115.905 138.896 106.361 140.837ZM93.0936 169.26C90.5367 157.776 99.1551 150.878 107.506 149.179C115.857 147.48 125.849 150.592 126.497 162.465C127.145 174.337 116.968 179.408 111.798 180.46C106.629 181.511 95.6505 180.744 93.0936 169.26Z" fill="#FFCC18"/>
<path d="M101.06 393.472C101.766 396.383 98.7888 408.184 109.636 405.978L116.794 404.522L141.846 399.426L166.899 394.329L174.056 392.873C184.903 390.667 178.937 380.685 178.827 377.653C176.759 380.925 167.068 386.792 140.844 392.127C114.621 397.461 103.889 395.748 101.06 393.472Z" fill="#FFCC18"/>
<path d="M77.3754 295.714C88.672 297.703 111.886 297.268 127.395 294.114C142.903 290.959 164.972 282.182 175.124 275.83C175.054 274.782 174.98 273.725 174.903 272.659C163.489 279.269 137.702 288.801 126.965 290.985C116.229 293.17 89.2969 294.361 76.7379 292.628C76.9499 293.667 77.1625 294.695 77.3754 295.714Z" fill="#FFCC18"/>
<path fill-rule="evenodd" clip-rule="evenodd" d="M179.211 376.82C178.917 376.924 178.812 377.217 178.827 377.653C179.017 377.352 179.143 377.074 179.211 376.82Z" fill="white"/>
<path d="M122.233 417.349C127.577 420.549 138.314 418.365 144.278 417.151C151.436 415.695 160.98 413.754 165.18 408.612C166.977 406.818 169.837 401.449 166.899 394.329L141.846 399.426L116.794 404.522C115.915 412.418 120.054 416.363 122.233 417.349Z" fill="white"/>
<path d="M83.301 321.304L100.475 392.836C100.781 392.819 100.958 393.054 101.06 393.472C103.889 395.748 114.621 397.461 140.844 392.127C167.068 386.792 176.759 380.925 178.827 377.653C178.812 377.217 178.917 376.924 179.211 376.82L176.353 302.375C176.177 294.489 175.78 285.556 175.124 275.83C164.972 282.182 142.903 290.959 127.395 294.114C111.886 297.268 88.672 297.703 77.3754 295.714C79.352 305.172 81.3617 313.777 83.301 321.304Z" fill="white"/>
<path d="M116.377 213.826C104.447 216.253 95.4662 224.082 96.5722 239.291C97.6783 254.5 113.957 255.761 121.957 254.491C129.863 252.526 144.92 244.89 141.905 230.069C138.891 215.248 125.921 211.885 116.377 213.826Z" fill="white"/>
<path fill-rule="evenodd" clip-rule="evenodd" d="M104.644 128.325C88.5342 132.46 69.902 128.604 62.5996 126.16C59.3251 184.554 67.5494 247.63 76.7379 292.628C89.2969 294.361 116.229 293.17 126.965 290.985C137.702 288.801 163.489 279.269 174.903 272.659C171.578 226.468 162.515 163.563 143.827 109.636C137.574 114.838 120.983 125.859 104.644 128.325ZM83.2636 169.116C82.0431 153.073 96.8174 142.779 106.361 140.837C115.905 138.896 132.625 142.783 135.755 158.438C139.666 178.006 121.294 187.103 112.943 188.801C104.592 190.5 84.7892 189.17 83.2636 169.116ZM84.6425 241.718C82.3918 218.167 104.003 207.054 115.089 204.442C126.271 202.524 149.676 204.48 153.835 227.642C157.864 250.079 135.832 260.921 123.243 263.858C110.553 266.063 86.8227 264.53 84.6425 241.718Z" fill="white"/>
<path d="M107.506 149.179C99.1551 150.878 90.5367 157.776 93.0936 169.26C95.6505 180.744 106.629 181.511 111.798 180.46C116.968 179.408 127.145 174.337 126.497 162.465C125.849 150.592 115.857 147.48 107.506 149.179Z" fill="white"/>
<path fill-rule="evenodd" clip-rule="evenodd" d="M178.018 377.062C177.724 377.167 177.619 377.459 177.634 377.895C177.824 377.595 177.95 377.316 178.018 377.062Z" fill="#FFF787"/>
<path d="M102.598 41.9254C115.195 53.2964 130.69 88.1358 129.985 98.5189C129.173 110.474 116.265 118.558 109.942 113.314C105.791 109.871 86.1362 29.1972 102.598 41.9254Z" fill="#FAE188"/>
<path d="M190.353 315.038C202.31 321.746 222.684 354.043 219.103 381.566C217.384 394.777 209.418 355.669 204.695 348.056C201.93 343.601 173.892 302.31 190.353 315.038Z" fill="#FAE188"/>
<path d="M79.1478 344.656C74.4224 363.838 66.8233 373.365 66.1181 383.748C65.3061 395.703 70.1747 418.056 65.0664 411.829C48.8673 392.08 69.9868 331.515 79.1478 344.656Z" fill="#FAE188"/>
<path fill-rule="evenodd" clip-rule="evenodd" d="M179.211 376.82C178.917 376.924 178.812 377.217 178.827 377.653C179.017 377.352 179.143 377.074 179.211 376.82Z" fill="white"/>
<path d="M122.233 417.349C114.404 458.598 146.736 527.404 163.595 557.915C171.391 522.389 183.597 444.523 165.18 408.612C160.98 413.754 151.436 415.695 144.278 417.151C138.314 418.365 127.577 420.549 122.233 417.349Z" fill="#FFBABA"/>
<path fill-rule="evenodd" clip-rule="evenodd" d="M179.211 376.82C178.917 376.924 178.812 377.217 178.827 377.653C179.017 377.352 179.143 377.074 179.211 376.82Z" fill="#FFCECE"/>
<path d="M137.858 430.247C135.121 440.093 132.161 459.873 138.045 476.297C143.414 491.281 152.958 489.34 160.257 515.722C162.216 485.313 162.985 504.449 167.514 470.302C170.569 456.819 159.151 431.333 155.396 426.68C151.682 422.076 149.766 421.394 151.261 417.633C150.997 416.808 150.811 416.226 150.81 415.723C148.558 416.281 146.321 416.736 144.278 417.151C142.576 417.498 140.485 417.923 138.242 418.28C141.084 417.899 139.17 426.1 137.858 430.247Z" fill="#FFCECE"/>
</svg>
