<svg width="581" height="329" viewBox="0 0 581 329" fill="none" xmlns="http://www.w3.org/2000/svg">
<path fill-rule="evenodd" clip-rule="evenodd" d="M477 270L440.5 212.5H461.5L489.5 259.5V203L449.5 137.5L410 200.5L449.5 270H477ZM440.5 194H457L449.5 179L440.5 194Z" fill="#FFCC18"/>
<path d="M495 270L520.5 224L581 304.5V91.5L544 206.5L495 137.5V270Z" fill="#FFCC18"/>
<path fill-rule="evenodd" clip-rule="evenodd" d="M353 270L344.5 109L440.5 137.5L400.5 200.5L440.5 270H400.5L378 206.5L380.5 270H353ZM406 152.5L375.5 186.5V142L406 152.5Z" fill="#FFCC18"/>
<path d="M301.5 24.5L339 0.5L344.5 5.5L332 22V60.5H355.5L369.5 94H344.5L339 76.5H335L348 300L323 329L296 272.5L310.5 76.5H305.5L301.5 94H277.5L290.5 60.5H310.5L314.5 30.5L301.5 24.5Z" fill="#FFCC18"/>
<path d="M200 270L296 109H301.5L296 169.5L249.5 239.5H290.5V270H200Z" fill="#FFCC18"/>
<path fill-rule="evenodd" clip-rule="evenodd" d="M194 270L234.5 200.5L197.5 142.5L156.5 206.5L194 270ZM208 206.5L194 229L181 206.5L194 184.5L208 206.5Z" fill="#FFCC18"/>
<path d="M0 109H70L104.5 191L242 60.5L104.5 277L48 145L0 109Z" fill="#FFCC18"/>
<path fill-rule="evenodd" clip-rule="evenodd" d="M477 270L440.5 212.5H461.5L489.5 259.5V203L449.5 137.5L410 200.5L449.5 270H477ZM440.5 194H457L449.5 179L440.5 194Z" stroke="#FFCC18"/>
<path d="M495 270L520.5 224L581 304.5V91.5L544 206.5L495 137.5V270Z" stroke="#FFCC18"/>
<path fill-rule="evenodd" clip-rule="evenodd" d="M353 270L344.5 109L440.5 137.5L400.5 200.5L440.5 270H400.5L378 206.5L380.5 270H353ZM406 152.5L375.5 186.5V142L406 152.5Z" stroke="#FFCC18"/>
<path d="M301.5 24.5L339 0.5L344.5 5.5L332 22V60.5H355.5L369.5 94H344.5L339 76.5H335L348 300L323 329L296 272.5L310.5 76.5H305.5L301.5 94H277.5L290.5 60.5H310.5L314.5 30.5L301.5 24.5Z" stroke="#FFCC18"/>
<path d="M200 270L296 109H301.5L296 169.5L249.5 239.5H290.5V270H200Z" stroke="#FFCC18"/>
<path fill-rule="evenodd" clip-rule="evenodd" d="M194 270L234.5 200.5L197.5 142.5L156.5 206.5L194 270ZM208 206.5L194 229L181 206.5L194 184.5L208 206.5Z" stroke="#FFCC18"/>
<path d="M0 109H70L104.5 191L242 60.5L104.5 277L48 145L0 109Z" stroke="#FFCC18"/>
</svg>
