<svg width="1000" height="1000" viewBox="0 0 1000 1000" fill="none" xmlns="http://www.w3.org/2000/svg">
<path d="M75.6667 3.86667C93.0889 72.8444 103.756 138.444 107.667 200.667C41.8889 334 18.7778 492.222 38.3334 675.333L150.333 706.8C233.889 822.711 345.089 913.556 483.933 979.333C496.2 998.889 508.556 998.889 521 979.333C649 920.667 760.111 829.111 854.333 704.667L963.667 675.333C985 492.222 962.422 333.111 895.933 198C902.867 119.778 913 54.8889 926.333 3.33332C897.889 -2.00001 851.667 14.8889 787.667 54C741.444 77.1111 695.222 74.4444 649 46C556.556 14 457 14.1778 350.333 46.5333C311.222 71.4222 265.889 73.9111 214.333 54C163.667 20.2222 117.444 3.51111 75.6667 3.86667Z" fill="#FFCC18"/>
<path d="M95.4 20.6667C108.911 78.4445 118.156 138.622 123.133 201.2C54.1556 334.178 30.6889 487.778 52.7333 662L158.333 692.4C229.444 801.911 340.556 893.111 491.667 966C497.711 976.667 504.289 976.667 511.4 966C668.911 884.222 779.667 793.556 843.667 694L950.333 662C971.311 487.778 947.311 334.178 878.333 201.2C887.222 120.844 897.178 60.5778 908.2 20.4C875.133 25.0222 842.067 38.3556 809 60.4C755.667 93.4667 702.333 94.1778 649 62.5334C542.333 26.6222 444.556 26.4445 355.667 62C311.222 88.6667 261.444 90.4445 206.333 67.3334C163.667 38.8889 126.689 23.3334 95.4 20.6667Z" fill="white"/>
<path d="M102.333 25.072C116.556 78.7076 125.432 138.277 128.963 203.781C59.2596 335.415 35.3183 487.463 57.1387 659.925L161.672 690.021C232.065 798.427 342.054 888.704 491.64 960.853C497.624 971.413 504.136 971.413 511.176 960.853C667.094 879.904 776.73 790.155 840.083 691.605L945.672 659.925C966.44 487.463 942.683 335.415 874.403 203.781C879.647 124.236 889.501 64.5778 903.965 24.8053C871.233 32.9369 838.5 47.1129 805.768 67.3334C752.975 98.1102 700.18 97.8365 647.384 66.512C541.795 30.9636 445.004 30.7876 357.011 65.984C313.018 92.384 263.743 94.9671 209.187 73.7333C159.839 43.9307 124.221 27.7102 102.333 25.072Z" fill="black"/>
<path d="M230.333 126L481 227.333L463.4 239.067L254.333 176.667L230.333 126ZM518.333 227.333L770.067 124.933L746.6 179.333L537 239.067L518.333 227.333ZM251.4 195.333L199.933 315.333L308.733 327.067L291.667 391.6L347.667 444.933C337 522.089 348.556 586.444 382.333 638L398.867 535.067L475.667 511.6V452.4L345 392.667L358.333 352.667H641.533L654.333 392.667L523.133 452.4V511.6L598.333 535.067L617 638C650.778 586.444 661.533 522.089 649.267 444.933L707.667 392.667L689 328.133L801 315.333L747.667 193.733L526.333 252.933L500.2 246L473 252.933L251.4 195.333ZM426.6 698.267L453.8 760.667H545L571.133 698.267C583.933 713.2 591.222 744.667 593 792.667H409C405.444 762.444 411.311 730.978 426.6 698.267ZM128.467 327.6L79.9333 478L126.333 454C174.333 624.667 255.222 758 369 854C241 694 161 518.533 129 327.6M222.333 564.933L270.333 412.933C307.667 618.089 384.467 790 500.733 928.667C382.689 829.111 305.178 699.867 268.2 540.933L222.333 564.933ZM500.733 928.667C622.689 772.222 698.778 600.133 729 412.4L777 563.333L730.6 537.733C701.089 684.578 624.467 814.889 500.733 928.667ZM630.333 854C742.333 761.556 823.222 629.111 873 456.667L918.333 479.6L870.333 328.667C836.555 526 756.555 701.111 630.333 854Z" fill="white"/>
<path d="M395.667 336.667C401 267.333 368.111 237.111 297 246C314.778 254.889 324.556 266.089 326.333 279.6C329.178 288.133 338.956 292.933 355.667 294C373.444 294 386.778 308.222 395.667 336.667ZM603.667 336.667C598.333 267.333 631.222 237.111 702.333 246C682.778 254.889 673 266.089 673 279.6C671.222 287.422 663.222 292.222 649 294C627.667 294 612.556 308.222 603.667 336.667Z" fill="black"/>
<path d="M127.096 339.653L89.7627 467.072L130.317 448.667C180.959 621.011 252.52 747.547 345 828.272C235.286 687.806 162.652 524.933 127.096 339.653ZM230.595 553.045L267.72 429.387C304.431 621.621 380.282 786.309 495.272 923.451C385.882 824.99 311 694.322 270.627 531.445L230.595 553.045ZM505.939 923.451C630.109 768.723 704.552 602.082 729.267 423.525L768.504 551.467L733.277 531.477C693.423 680.267 617.644 810.924 505.939 923.451ZM634.115 849.605C741.329 758.174 819.34 624.528 868.147 448.667L909.88 470L871.475 340.709C841.626 528.763 762.506 698.395 634.115 849.605Z" fill="#FFCC18"/>
<path d="M377 278C346.778 294 331.489 284.756 331.133 250.267L347.667 251.333C346.6 269.111 354.6 274.444 371.667 267.333L377 278ZM622.333 278L627.667 267.333C648.289 274.444 656.289 269.111 651.667 251.333L668.2 248.667C671.4 284.222 656.111 294 622.333 278Z" fill="#F0EB85"/>
<path d="M356.733 256.667C354.244 250.978 351.044 250.978 347.133 256.667C351.044 262 354.244 262 356.733 256.667ZM642.6 256.667C645.089 250.978 648.289 250.978 652.2 256.667C648.289 262 645.089 262 642.6 256.667Z" fill="white"/>
</svg>
