<?xml version="1.0" encoding="UTF-8"?>
<svg viewBox="-15 -15 30 30" width="300" height="300" xmlns="http://www.w3.org/2000/svg">
    <path d="M -7.75 -8.44 Q -7.26 -6.5 -7.15 -4.75 Q -9 -1 -8.45 4.15 L -6.35 4.74 Q -4 8 -0.095 9.85 Q 0.25 10.4 0.6 9.85 Q 4.2 8.2 6.85 4.7 L 8.9 4.15 Q 9.5 -1 7.63 -4.8 Q 7.825 -7 8.2 -8.45 Q 7.4 -8.6 5.6 -7.5 Q 4.3 -6.85 3 -7.65 Q 0.4 -8.55 -2.6 -7.64 Q -3.7 -6.94 -5.15 -7.5 Q -6.575 -8.45 -7.75 -8.44 " 
          fill="#ffcc18"/>
    <path d="M -7.38 -8.125 Q -7 -6.5 -6.86 -4.74 Q -8.8 -1 -8.18 3.9 L -6.2 4.47 Q -4.2 7.55 0.05 9.6 Q 0.22 9.9 0.42 9.6 Q 4.85 7.3 6.65 4.5 L 8.65 3.9 Q 9.24 -1 7.3 -4.74 Q 7.55 -7 7.86 -8.13 Q 6.93 -8 6 -7.38 Q 4.5 -6.45 3 -7.34 Q 0 -8.35 -2.5 -7.35 Q -3.75 -6.6 -5.3 -7.25 Q -6.5 -8.05 -7.38 -8.125"
          fill="white"/>
    <path d="M -7.25 -8.0424 Q -6.85 -6.5339 -6.7507 -4.6916 Q -8.7111 -0.9894 -8.0974 3.8611 L -6.1374 4.4254 Q -4.1576 7.4743 0.0495 9.5035 Q 0.2178 9.8005 0.4158 9.5035 Q 4.801 7.2268 6.5828 4.4551 L 8.5626 3.8611 Q 9.1467 -0.9894 7.2263 -4.6916 Q 7.3738 -6.9288 7.7806 -8.0474 Q 6.86 -7.8187 5.9394 -7.25 Q 4.4546 -6.3844 2.9697 -7.2654 Q 0 -8.2652 -2.4748 -7.2753 Q -3.7121 -6.5328 -5.2465 -7.13 Q -6.6344 -7.9682 -7.25 -8.0424"
          fill="black"/>
    <path d="M -4.85 -6.15 L -0.15 -4.25 L -0.48 -4.03 L -4.4 -5.2 L -4.85 -6.15 M 0.55 -4.25 L 5.27 -6.17 L 4.83 -5.15 L 0.9 -4.03 L 0.55 -4.25 M -4.455 -4.85 L -5.42 -2.6 L -3.38 -2.38 L -3.7 -1.17 L -2.65 -0.17 Q -2.95 2 -2 3.45 L -1.69 1.52 L -0.25 1.08 L -0.25 -0.03 L -2.7 -1.15 L -2.45 -1.9 L 2.86 -1.9 L 3.1 -1.15 L 0.64 -0.03 L 0.64 1.08 L 2.05 1.52 L 2.4 3.45 Q 3.35 2 3.005 -0.17 L 4.1 -1.15 L 3.75 -2.36 L 5.85 -2.6 L 4.85 -4.88 L 0.7 -3.77 L 0.21 -3.9 L -0.3 -3.77 L -4.455 -4.85 M -1.17 4.58 L -0.66 5.75 L 1.05 5.75 L 1.54 4.58 Q 1.9 5 1.95 6.35 L -1.5 6.35 Q -1.6 5.5 -1.17 4.58 M -6.76 -2.37 L -7.67 0.45 L -6.8 0 Q -5.45 4.8 -2.25 7.5 Q -5.85 3 -6.75 -2.37 M -5 2.08 L -4.1 -0.77 Q -3.05 5 0.22 8.9 Q -3.1 6.1 -4.14 1.63 L -5 2.08 M 0.22 8.9 Q 3.65 4.5 4.5 -0.78 L 5.4 2.05 L 4.53 1.57 Q 3.7 5.7 0.22 8.9 M 2.65 7.5 Q 5.8 4.9 7.2 0.05 L 8.05 0.48 L 7.15 -2.35 Q 6.2 3.2 2.65 7.5" 
          fill="white"/>
    <path d="M -1.75 -2.2 Q -1.6 -4.15 -3.6 -3.9 Q -3.1 -3.65 -3.05 -3.27 Q -2.97 -3.03 -2.5 -3 Q -2 -3 -1.75 -2.2 M 2.15 -2.2 Q 2 -4.15 4 -3.9 Q 3.45 -3.65 3.45 -3.27 Q 3.4 -3.05 3 -3 Q 2.4 -3 2.15 -2.2 M 0 -6"
         fill="black"/>    
    <path d="M -6.7857 -2.144 L -7.4857 0.2451 L -6.7253 -0.1 Q -5.301 4.7472 -2.7 7.0176 Q -5.7857 3.067 -6.7857 -2.144 M -4.8451 1.8571 L -4.149 -0.4615 Q -3.1165 4.9451 0.1176 8.8022 Q -2.959 6.033 -4.0945 1.4521 L -4.8451 1.8571 M 0.3176 8.8022 Q 3.8099 4.4505 4.505 -0.5714 L 5.2407 1.8275 L 4.5802 1.4527 Q 3.4593 5.6374 0.3176 8.8022 M 2.7209 7.4176 Q 5.7363 4.8461 7.109 -0.1 L 7.8915 0.3 L 7.1714 -2.1242 Q 6.3319 3.1648 2.7209 7.4176" 
          fill="#ffcc18"/> 
    <path d="M -2.1 -3.3 Q -2.95 -2.85 -2.96 -3.82 L -2.65 -3.8 Q -2.68 -3.3 -2.2 -3.5 L -2.1 -3.3 M 2.5 -3.3 L 2.6 -3.5 Q 3.18 -3.3 3.05 -3.8 L 3.36 -3.85 Q 3.45 -2.85 2.5 -3.3" 
          fill="#F0EB85"/>   
    <path d="M -2.48 -3.7 Q -2.55 -3.86 -2.66 -3.7 Q -2.55 -3.55 -2.48 -3.7 M 2.88 -3.7 Q 2.95 -3.86 3.06 -3.7 Q 2.95 -3.55 2.88 -3.7" 
          fill="white"/>      
</svg>